<svg xmlns="http://www.w3.org/2000/svg" viewBox="0 0 32 32" width="32" height="32">
  <rect width="32" height="32" rx="5" fill="#0f1c30"/>
  <g transform="translate(0, 1.9) scale(0.0762)">
    <path d="M52 152 Q68 148 210 58 Q352 148 368 152 Z" fill="#e8eaf0"/>
    <path d="M34 145 Q43 135 52 152" fill="none" stroke="#e8eaf0" stroke-width="10" stroke-linecap="round"/>
    <path d="M368 152 Q377 135 386 145" fill="none" stroke="#e8eaf0" stroke-width="10" stroke-linecap="round"/>
    <rect x="28" y="145" width="364" height="17" rx="4" fill="#e8eaf0"/>
    <rect x="145" y="142" width="130" height="7" rx="2" fill="white" opacity="0.4"/>
    <path d="M108 170 Q210 72 312 170" fill="none" stroke="#c9a227" stroke-width="14" stroke-linecap="round"/>
    <path d="M130 170 Q210 96 290 170" fill="none" stroke="#c9a227" stroke-width="14" stroke-linecap="round"/>
    <rect x="192" y="84" width="17" height="17" rx="2.5" fill="#c9a227"/>
    <rect x="213" y="84" width="17" height="17" rx="2.5" fill="#c9a227"/>
    <rect x="162" y="104" width="15" height="15" rx="2" fill="#c9a227"/>
    <rect x="140" y="122" width="14" height="14" rx="2" fill="#c9a227"/>
    <rect x="243" y="104" width="15" height="15" rx="2" fill="#c9a227"/>
    <rect x="266" y="122" width="14" height="14" rx="2" fill="#c9a227"/>
    <rect x="109" y="168" width="13" height="34" rx="3" fill="#c9a227"/>
    <rect x="84" y="190" width="36" height="11" rx="3" fill="#c9a227"/>
    <circle cx="84" cy="214" r="10" fill="none" stroke="#c9a227" stroke-width="5.5"/>
    <rect x="298" y="168" width="13" height="34" rx="3" fill="#c9a227"/>
    <rect x="300" y="190" width="36" height="11" rx="3" fill="#c9a227"/>
    <circle cx="336" cy="214" r="10" fill="none" stroke="#c9a227" stroke-width="5.5"/>
  </g>
</svg>